<?xml version="1.0" encoding="UTF-8" standalone="no"?>
<svg
   xmlns:dc="http://purl.org/dc/elements/1.1/"
   xmlns:cc="http://creativecommons.org/ns#"
   xmlns:rdf="http://www.w3.org/1999/02/22-rdf-syntax-ns#"
   xmlns:svg="http://www.w3.org/2000/svg"
   xmlns="http://www.w3.org/2000/svg"
   xmlns:xlink="http://www.w3.org/1999/xlink"
   xmlns:sodipodi="http://sodipodi.sourceforge.net/DTD/sodipodi-0.dtd"
   xmlns:inkscape="http://www.inkscape.org/namespaces/inkscape"
   width="22.205387mm"
   height="22.206398mm"
   viewBox="0 0 78.680507 78.684087"
   id="svg2"
   version="1.1"
   inkscape:version="1.0.1 (3bc2e813f5, 2020-09-07)"
   sodipodi:docname="icon.svg"
   inkscape:export-filename="C:\Users\rnd\github\PBCheck\graphics\icon.png"
   inkscape:export-xdpi="82.354652"
   inkscape:export-ydpi="82.354652">
  <defs
     id="defs4">
    <clipPath
       id="clipPath18">
      <path
         id="path20"
         d="M 0,38 H 38 V 0 H 0 Z"
         inkscape:connector-curvature="0" />
    </clipPath>
    <clipPath
       id="clipPath18-2">
      <path
         id="path20-0"
         d="M 0,38 H 38 V 0 H 0 Z"
         inkscape:connector-curvature="0" />
    </clipPath>
    <clipPath
       id="clipPath18-3">
      <path
         id="path20-6"
         d="M 0,38 H 38 V 0 H 0 Z"
         inkscape:connector-curvature="0" />
    </clipPath>
    <linearGradient
       id="linearGradient2851">
      <stop
         style="stop-color:#b2b2bf;stop-opacity:1;"
         offset="0"
         id="stop2853" />
      <stop
         style="stop-color:#151519;stop-opacity:1;"
         offset="1"
         id="stop2855" />
    </linearGradient>
    <linearGradient
       id="linearGradient4069">
      <stop
         id="stop4071"
         offset="0"
         style="stop-color:#2f2f39;stop-opacity:1;" />
      <stop
         id="stop4073"
         offset="1"
         style="stop-color:#9393a6;stop-opacity:1;" />
    </linearGradient>
    <linearGradient
       id="linearGradient3157">
      <stop
         id="stop3159"
         offset="0"
         style="stop-color:#f4f4f6;stop-opacity:1" />
      <stop
         id="stop3161"
         offset="1"
         style="stop-color:white;stop-opacity:0" />
    </linearGradient>
    <linearGradient
       id="linearGradient3048">
      <stop
         style="stop-color:#ff372c;stop-opacity:1;"
         offset="0"
         id="stop3050" />
      <stop
         style="stop-color:#a11f18;stop-opacity:1;"
         offset="1"
         id="stop3052" />
    </linearGradient>
    <linearGradient
       id="linearGradient4569">
      <stop
         style="stop-color:white;stop-opacity:1;"
         offset="0"
         id="stop4571" />
      <stop
         style="stop-color:white;stop-opacity:0"
         offset="1"
         id="stop4573" />
    </linearGradient>
    <linearGradient
       id="linearGradient6599">
      <stop
         style="stop-color:#f4f4f6;stop-opacity:1"
         offset="0"
         id="stop6601" />
      <stop
         style="stop-color:#a1a2c0;stop-opacity:1;"
         offset="1"
         id="stop6603" />
    </linearGradient>
    <radialGradient
       cx="381.42023"
       cy="333.27771"
       r="316.51691"
       fx="381.42023"
       fy="333.27771"
       id="radialGradient13649"
       xlink:href="#linearGradient6599"
       gradientUnits="userSpaceOnUse"
       gradientTransform="matrix(0.260971,-2.206619e-3,1.968349e-3,0.232582,8.279904,31.44974)"
       spreadMethod="pad" />
    <radialGradient
       cx="381.42023"
       cy="333.27771"
       r="316.51691"
       fx="381.42023"
       fy="333.27771"
       id="radialGradient13651"
       xlink:href="#linearGradient6599"
       gradientUnits="userSpaceOnUse"
       gradientTransform="matrix(0.260971,-2.206619e-3,1.968349e-3,0.232582,8.691489,28.56994)"
       spreadMethod="pad" />
    <radialGradient
       cx="381.42023"
       cy="333.27771"
       r="316.51691"
       fx="381.42023"
       fy="333.27771"
       id="radialGradient1879"
       xlink:href="#linearGradient6599"
       gradientUnits="userSpaceOnUse"
       gradientTransform="matrix(0.20013,-1.547535e-3,1.509464e-3,0.163113,-2.11855,19.04434)"
       spreadMethod="pad" />
    <radialGradient
       cx="381.42023"
       cy="333.27771"
       r="316.51691"
       fx="381.42023"
       fy="333.27771"
       id="radialGradient1883"
       xlink:href="#linearGradient6599"
       gradientUnits="userSpaceOnUse"
       gradientTransform="matrix(0.20013,-1.547535e-3,1.509464e-3,0.163113,-2.434182,21.06398)"
       spreadMethod="pad" />
    <linearGradient
       x1="32.485081"
       y1="18.173479"
       x2="39.085705"
       y2="35.936974"
       id="linearGradient4575"
       xlink:href="#linearGradient4569"
       gradientUnits="userSpaceOnUse"
       gradientTransform="matrix(0.796247,0,0,0.747007,9.781798,4.994596)" />
    <linearGradient
       x1="32.485081"
       y1="18.173479"
       x2="39.085705"
       y2="35.936974"
       id="linearGradient4579"
       xlink:href="#linearGradient4569"
       gradientUnits="userSpaceOnUse"
       gradientTransform="matrix(0.796247,0,0,0.747007,64.11903,1.084587)" />
    <linearGradient
       inkscape:collect="always"
       xlink:href="#linearGradient4569"
       id="linearGradient3155"
       x1="61.156227"
       y1="76.922729"
       x2="74.122025"
       y2="90.246391"
       gradientUnits="userSpaceOnUse" />
    <linearGradient
       inkscape:collect="always"
       xlink:href="#linearGradient6599"
       id="linearGradient4091"
       x1="240.31413"
       y1="38.874344"
       x2="305.49738"
       y2="38.874344"
       gradientUnits="userSpaceOnUse"
       gradientTransform="translate(-31.97863,-172.8254)" />
    <linearGradient
       inkscape:collect="always"
       xlink:href="#linearGradient3048"
       id="linearGradient2897"
       gradientUnits="userSpaceOnUse"
       x1="28.837864"
       y1="139.09169"
       x2="70.107292"
       y2="50.836796" />
    <linearGradient
       inkscape:collect="always"
       xlink:href="#linearGradient2851"
       id="linearGradient2903"
       gradientUnits="userSpaceOnUse"
       spreadMethod="pad"
       x1="260.55884"
       y1="38.834545"
       x2="271.94626"
       y2="50.614651"
       gradientTransform="translate(-155.4974,-0.39267)" />
    <linearGradient
       inkscape:collect="always"
       xlink:href="#linearGradient6599"
       id="linearGradient2936"
       x1="117.93728"
       y1="39.26852"
       x2="131.3474"
       y2="19.276201"
       gradientUnits="userSpaceOnUse" />
    <linearGradient
       inkscape:collect="always"
       xlink:href="#linearGradient4069"
       id="linearGradient2967"
       x1="20.621258"
       y1="16.678968"
       x2="190.02657"
       y2="189.49789"
       gradientUnits="userSpaceOnUse" />
    <linearGradient
       inkscape:collect="always"
       xlink:href="#linearGradient6599"
       id="linearGradient2996"
       gradientUnits="userSpaceOnUse"
       x1="174.77054"
       y1="170.47469"
       x2="16.857574"
       y2="10.953424" />
    <linearGradient
       inkscape:collect="always"
       xlink:href="#linearGradient6599"
       id="linearGradient3004"
       gradientUnits="userSpaceOnUse"
       x1="132.59375"
       y1="130.90257"
       x2="-30.518579"
       y2="-30.765875" />
    <linearGradient
       inkscape:collect="always"
       xlink:href="#linearGradient6599"
       id="linearGradient3007"
       gradientUnits="userSpaceOnUse"
       x1="95.437065"
       y1="54.315994"
       x2="99.909843"
       y2="58.712097" />
    <linearGradient
       inkscape:collect="always"
       xlink:href="#linearGradient3157"
       id="linearGradient3015"
       gradientUnits="userSpaceOnUse"
       x1="39.359585"
       y1="21.469936"
       x2="45.14185"
       y2="59.042255" />
    <linearGradient
       inkscape:collect="always"
       xlink:href="#linearGradient4569"
       id="linearGradient3025"
       gradientUnits="userSpaceOnUse"
       x1="105.72369"
       y1="85.294189"
       x2="96.720894"
       y2="92.09375" />
    <linearGradient
       inkscape:collect="always"
       xlink:href="#linearGradient6599"
       id="linearGradient3030"
       gradientUnits="userSpaceOnUse"
       x1="253.14423"
       y1="111.46268"
       x2="270.63672"
       y2="107.22004" />
    <linearGradient
       inkscape:collect="always"
       xlink:href="#linearGradient6599"
       id="linearGradient3038"
       gradientUnits="userSpaceOnUse"
       x1="255.25127"
       y1="111.47541"
       x2="273.8187"
       y2="111.47541"
       gradientTransform="translate(-144.6033,0.353554)" />
  </defs>
  <sodipodi:namedview
     id="base"
     pagecolor="#ffffff"
     bordercolor="#666666"
     borderopacity="1.0"
     inkscape:pageopacity="0.0"
     inkscape:pageshadow="2"
     inkscape:zoom="2.8284272"
     inkscape:cx="-49.230031"
     inkscape:cy="26.635819"
     inkscape:document-units="px"
     inkscape:current-layer="layer_picture"
     showgrid="false"
     showguides="false"
     inkscape:guide-bbox="true"
     fit-margin-top="0"
     fit-margin-left="0"
     fit-margin-right="0"
     fit-margin-bottom="0"
     inkscape:window-width="1920"
     inkscape:window-height="1017"
     inkscape:window-x="0"
     inkscape:window-y="0"
     inkscape:window-maximized="0"
     inkscape:document-rotation="0">
    <sodipodi:guide
       position="-12.875889,80.653666"
       orientation="-0.70710678,0.70710678"
       id="guide4186"
       inkscape:locked="false" />
    <inkscape:grid
       type="xygrid"
       id="grid4188"
       originx="-62.875891"
       originy="-1048.9715" />
  </sodipodi:namedview>
  <metadata
     id="metadata7">
    <rdf:RDF>
      <cc:Work
         rdf:about="">
        <dc:format>image/svg+xml</dc:format>
        <dc:type
           rdf:resource="http://purl.org/dc/dcmitype/StillImage" />
        <dc:title />
      </cc:Work>
    </rdf:RDF>
  </metadata>
  <g
     inkscape:label="layer_text"
     inkscape:groupmode="layer"
     id="layer_text"
     transform="translate(-62.875889,-114.33178)"
     style="display:inline" />
  <g
     inkscape:groupmode="layer"
     id="layer_picture"
     inkscape:label="layer_picture"
     style="display:inline"
     transform="translate(1.5161133,-94.960575)">
    <path
       id="r_background"
       style="display:inline;fill:#008ad8;fill-opacity:1;stroke:none;stroke-width:0.46875;stroke-miterlimit:4;stroke-dasharray:none;stroke-opacity:1"
       d="m 6.4399019,94.960575 c -4.407037,0 -7.9559341,3.548891 -7.9559341,7.955925 v 22.20887 c 3.6558941,-0.0358 7.3116281,-0.0682 10.8654845,-0.93567 4.9782387,-3.37141 11.1085137,-6.1353 17.2833197,-4.67285 1.829128,-2.76965 6.432159,-1.14779 7.754522,-3.93128 0.495009,-2.78742 2.41515,-4.11611 4.193119,-4.01367 1.777959,0.10244 3.414731,1.63851 3.345328,4.57947 4.687828,0.32985 9.274528,2.9871 11.350716,7.33704 -0.46171,5.05595 3.922397,6.53858 7.72155,8.36242 3.986737,1.95621 -2.62696,7.10429 -5.34301,7.56409 -5.107172,-0.0322 -11.243615,-0.56805 -15.100715,3.55774 -4.896929,7.1416 -11.407501,13.02037 -18.292238,18.1604 -4.753069,3.72841 -10.139917,7.51369 -13.6669887,12.5116 H 17.613 c 3.107484,-4.82328 7.411969,-8.22053 11.438597,-12.26807 3.503306,-2.89664 4.927997,-5.70008 7.651978,-9.14612 0.16125,7.76766 -1.778475,14.56104 -4.282837,21.41419 h 36.789553 c 4.407038,0 7.954097,-3.54889 7.954097,-7.95594 V 102.9165 c 0,-4.407034 -3.547059,-7.955925 -7.954097,-7.955925 z M 53.584069,113.79663 c 2.525644,-0.22519 4.805194,3.73013 1.607663,6.85913 -1.036528,2.33533 -4.765135,-2.92133 -4.713132,-3.48999 0.759029,-2.29959 1.957454,-3.26678 3.105469,-3.36914 z"
       inkscape:label="r_background" />
    <path
       id="p_bear"
       style="display:inline;fill:#ffffff;fill-opacity:1;stroke:none;stroke-width:2.04148;stroke-miterlimit:4;stroke-dasharray:none;stroke-opacity:1"
       d="m 41.154297,119.00977 c -1.896491,-0.10928 -3.946599,1.308 -4.474609,4.28125 -1.410518,2.96905 -6.320424,1.23906 -8.271485,4.19336 -6.586464,-1.55995 -13.123471,1.38819 -18.4335936,4.98437 -3.7914092,0.9254 -7.691525,0.95988 -11.5917969,0.99805 v 43.26953 c 0,4.70034 3.7840312,8.48437 8.484375,8.48437 h 2.2988281 c 3.7621814,-5.33218 9.5113884,-9.37013 14.5820314,-13.34765 7.343712,-5.4827 14.286374,-11.75144 19.509765,-19.36914 4.11424,-4.40085 10.659774,-3.8293 16.107422,-3.79493 2.89712,-0.49045 9.953695,-5.98368 5.701172,-8.07031 -4.052437,-1.94544 -8.730772,-3.52495 -8.238281,-8.91797 -2.214592,-4.63993 -7.107081,-7.47627 -12.107422,-7.82812 0.07403,-3.13702 -1.669915,-4.77355 -3.566406,-4.88281 z m 16.003906,2.37304 c -1.224555,0.10919 -2.504821,1.14086 -3.314453,3.59375 -0.05547,0.60657 3.923665,6.21368 5.029297,3.72266 3.410699,-3.3376 0.979172,-7.55661 -1.714844,-7.31641 z m -18.007812,40.99414 c -2.905579,3.67578 -4.425256,6.6661 -8.16211,9.75586 -4.295253,4.31756 -8.886489,7.94272 -12.201172,13.08789 h 15.796875 c 2.671364,-7.3101 4.738407,-14.55815 4.566407,-22.84375 z"
       transform="scale(0.93750001)"
       inkscape:label="p_bear" />
    <g
       id="g1922"
       transform="matrix(0.21752015,0,0,0.21752015,41.995873,140.40707)">
      <g
         id="Clef">
        <path
           sodipodi:nodetypes="cssssssssscccccc"
           id="path2971"
           d="m 58.082393,80.410437 c 0,-1.141859 -2.01885,-1.559912 -7.53305,-1.559912 -20.40169,0 -35.55667,-14.536611 -35.5849,-34.132929 -0.0063,-4.348096 0.74867,-9.724692 1.67762,-11.947992 2.72434,-6.520272 4.937363,-5.510418 16.254413,5.865729 10.26971,10.323339 12.183609,13.498417 17.428477,7.776404 5.331039,-5.816022 3.597704,-7.116307 -6.564726,-17.225944 -11.48129,-11.421645 -13.823504,-13.520336 -7.055194,-16.348316 14.31293,-5.9803231 33.451,1.28426 41.58865,15.786557 2.94115,5.241498 3.62506,7.937253 4.0454,15.945623 0.45011,8.575886 0.84805,9.965565 3.61188,12.613482 33.499327,33.969076 -9.092853,-9.075209 30.643587,30.992647 13.04174,13.025764 21.70773,21.567454 20.75256,22.742134 -1.06066,2.69009 -20.80652,22.75328 -22.67113,22.71852 -0.66972,0.70702 -10.39982,-8.82843 -21.128754,-19.48191 -34.64312,-34.000017 4.38854,3.63052 -35.464833,-33.744093 z"
           style="fill:url(#linearGradient2967);fill-opacity:1" />
        <path
           sodipodi:nodetypes="ccccscccccccccccc"
           id="path2955"
           d="m 46.0625,12.78125 c -3.513467,0.528847 -8.956493,0.773743 -11.0625,3.75 5.279841,8.750172 15.945032,13.894547 20.125,23.40625 0.522047,5.13102 -4.239693,10.291429 -9.09375,11.28125 -7.36156,-0.913689 -11.044603,-8.996304 -16.5625,-13.15625 -3.007258,-2.265614 -5.640538,-6.869942 -9.5,-7.125 -4.742049,8.443885 -3.659242,20.047059 0.53125,28.75 6.2601,12.634305 21.275045,17.539157 35.882964,16.574143 6.279874,0.307232 5.130573,4.49923 11.06859,10.062001 C 83.011628,100.46016 95.832019,113.82133 114.875,131.46875 122.12905,124.23152 127.65902,118.69141 135.09375,110.75 115.90912,89.719717 97.105875,72.608836 80.159929,53.75368 80.035918,49.974256 82.165125,36.330624 75.8125,28.34375 69.48327,18.417244 57.789989,12.261847 46.0625,12.78125 Z M 34.96875,16.21875 34.9375,16.25 Z"
           style="fill:url(#linearGradient2996);fill-opacity:1" />
        <path
           sodipodi:nodetypes="cccccccccccc"
           id="path2998"
           d="m 46.125,14.78125 c -2.667654,0.508938 -6.53548,0.449137 -8.4375,2.1875 5.752785,8.503543 17.237282,13.504936 19.46875,24.0625 C 56.937852,48.931018 47.02177,56.81345 40,51.03125 33.219464,45.711793 28.129803,38.31319 21.0625,33.25 c -6.612057,15.175462 1.902421,35.121997 18.15625,39.71875 6.068746,2.793352 15.162546,0.121017 21.402571,1.75184 18.730199,19.006317 35.403887,36.62213 54.472429,54.06066 6.88478,-6.63027 11.46433,-11.25425 17.5,-17.90625 C 114.50695,91.845136 94.750778,73.018872 78.284931,54.118876 78.36891,45.910534 80.317676,34.793844 72.375,26.96875 66.290569,19.179841 56.223704,14.331407 46.125,14.78125 Z"
           style="fill:url(#linearGradient3004);fill-opacity:1" />
        <path
           sodipodi:nodetypes="ccccccccc"
           id="path3009"
           d="m 46.1875,16.78125 c -3.905184,0.08247 -7.402768,0.818469 -2.625,4 6.188475,6.101614 15.810888,12.318697 15.40625,22.125 -1.224119,9.106971 -13.570587,16.323306 -20.875,9.15625 C 32.356992,47.588182 27.411561,40.487406 21.90625,36.75 17.013204,52.165774 27.801872,69.72744 44.3125,72.1875 59.691898,71.369384 71.752787,69.640165 75.84375,56.72427 77.784762,42.878545 75.553827,35.77131 69.09375,26.1875 63.216833,20.021584 54.686297,16.386778 46.1875,16.78125 Z"
           style="fill:url(#linearGradient3015);fill-opacity:1" />
        <path
           sodipodi:nodetypes="cccccc"
           id="path3019"
           d="M 77.5,58.15625 C 73.073791,64.868978 68.321786,70.093813 61.580267,74.021447 78.490009,92.413211 96.70464,109.35904 115.0625,126.25 120.59653,120.30323 125.22356,116.18821 130.09375,111 111.91683,91.659821 94.26166,76.390888 77.625,57.9375 Z"
           style="fill:url(#linearGradient3025);fill-opacity:1" />
        <ellipse
           transform="translate(-144.6033,0.353554)"
           id="path3028"
           style="color:#000000;display:inline;overflow:visible;visibility:visible;opacity:1;fill:url(#linearGradient3030);fill-opacity:1;fill-rule:nonzero;stroke:none;stroke-width:1;stroke-linecap:butt;stroke-linejoin:miter;stroke-miterlimit:4;stroke-dasharray:none;stroke-dashoffset:0;stroke-opacity:1;marker:none;marker-start:none;marker-mid:none;marker-end:none"
           cx="259.68497"
           cy="111.46268"
           rx="6.5407376"
           ry="6.3639607" />
        <path
           id="path3032"
           d="m 114.61545,107.47855 c -5.16379,0.12618 -5.37185,8.37723 -0.125,8.65625 6.15221,0.77287 7.40464,-8.70961 0.125,-8.65625 z"
           style="color:#000000;display:inline;overflow:visible;visibility:visible;opacity:1;fill:url(#linearGradient3038);fill-opacity:1;fill-rule:nonzero;stroke:none;stroke-width:1;stroke-linecap:butt;stroke-linejoin:miter;stroke-miterlimit:4;stroke-dasharray:none;stroke-dashoffset:0;stroke-opacity:1;marker:none;marker-start:none;marker-mid:none;marker-end:none" />
      </g>
      <g
         id="tourne-vis">
        <g
           id="tige">
          <path
             style="color:#000000;display:inline;overflow:visible;visibility:visible;fill:url(#linearGradient2903);fill-opacity:1;fill-rule:nonzero;stroke:none;stroke-width:1;stroke-linecap:butt;stroke-linejoin:miter;stroke-miterlimit:4;stroke-dasharray:none;stroke-dashoffset:0;stroke-opacity:1;marker:none;marker-start:none;marker-mid:none;marker-end:none"
             d="m 70.8168,75.807488 c 37.50333,-36.342451 40.56542,-40.580288 40.70862,-42.366145 0.44258,-5.519333 0.89318,-6.916419 6.72438,-10.033141 6.8329,-3.652124 12.13733,-5.820104 12.43584,-5.184786 0.31127,0.763232 4.81117,4.168738 4.69137,5.825618 -0.1198,1.656881 -5.27368,11.66519 -7.71896,15.332634 -2.47398,3.710481 -1.94481,1.004211 -7.87715,2.182222 -1.97046,0.391282 -3.1296,2.250908 -41.79566,40.766645"
             id="path4051"
             sodipodi:nodetypes="cssccssc" />
          <path
             sodipodi:nodetypes="ccccccccc"
             id="path2883"
             d="m 129.59635,20.32608 c -5.15216,2.680859 -12.17478,4.052589 -15.4375,9.09375 0.2189,5.460353 -3.3354,9.469021 -7.01186,13.064237 C 96.34187,53.845428 85.0048,64.804524 73.72135,75.76358 c 1.854033,3.679968 0.480939,2.368732 4.919619,2.423368 10.61659,-9.941044 27.151041,-29.181123 38.353671,-38.298368 2.99965,-1.585111 8.90486,1.203943 9.97671,-3.15625 1.92675,-4.285612 5.72343,-9.964803 6.22855,-13.728553 -1.01587,-1.0014 -2.41272,-2.116262 -3.60355,-2.677697 z"
             style="color:#000000;display:inline;overflow:visible;visibility:visible;opacity:1;fill:url(#linearGradient3007);fill-opacity:1;fill-rule:nonzero;stroke:none;stroke-width:1;stroke-linecap:butt;stroke-linejoin:miter;stroke-miterlimit:4;stroke-dasharray:none;stroke-dashoffset:0;stroke-opacity:1;marker:none;marker-start:none;marker-mid:none;marker-end:none" />
          <path
             sodipodi:nodetypes="cczczc"
             id="path2920"
             d="m 130.75916,21.20419 2.00247,1.963351 c 0,0 -5.52671,9.806961 -7.49985,11.780104 -1.76701,1.767016 -7.06806,0 -7.06806,0 0,0 -0.78534,-5.595549 0.39267,-6.675392 1.40507,-1.287978 12.17277,-7.068063 12.17277,-7.068063 z"
             style="fill:url(#linearGradient2936);fill-opacity:1;fill-rule:evenodd;stroke:none;stroke-width:1px;stroke-linecap:butt;stroke-linejoin:miter;stroke-opacity:1" />
        </g>
        <g
           id="manche">
          <path
             style="fill:#8b1f1f;fill-opacity:1"
             d="m 86.4598,86.55428 c -1.00175,2.107683 -1.94077,4.786341 -3.56809,7.928624 -5.72566,0.648799 -6.46214,-1.838225 -11.37179,5.400926 -0.67254,0 -2.07626,2.56984 -5.99896,7.63046 -9.65524,12.45612 -22.90004,25.87397 -29.89999,30.29066 -8.13102,5.13035 -12.91323,4.93916 -18.35046,-0.73368 v 0 c -2.30432,-2.40417 -4.50027,-5.42031 -4.8799,-6.70253 -2.0389,-6.88665 12.35664,-24.56299 33.65808,-41.328916 12.35351,-8.042911 13.24788,-9.051957 11.10721,-18.245406 2.953643,-1.926604 4.527619,-1.655304 9.92864,-3.767754"
             id="path4057"
             sodipodi:nodetypes="cccssccsccc" />
          <path
             sodipodi:nodetypes="csssssssssc"
             id="path3149"
             d="m 18.71063,134.63726 c -1.98975,-2.26619 -4.324833,-4.63204 -4.324833,-5.68954 0,-7.21366 13.840119,-22.92884 33.132553,-37.621362 10.753312,-8.189386 13.493757,-11.075917 13.493757,-17.694811 0,-1.308539 1.277574,-2.671957 3.182313,-3.396137 2.993987,-1.138311 2.270318,-0.342627 10.254564,7.824656 7.447395,7.618126 9.068931,8.665057 8.175576,11.084716 -0.559898,1.516489 -1.285281,3.086483 -2.510652,3.11405 -9.223413,0.215454 -6.796956,-0.08999 -13.585532,8.731738 -9.664058,12.55841 -25.807864,29.92503 -32.263197,34.07885 -7.220556,4.64623 -12.388699,3.01648 -15.554549,-0.43216 z"
             style="fill:url(#linearGradient2897);fill-opacity:1" />
          <path
             sodipodi:nodetypes="csssssssc"
             style="opacity:1;fill:url(#linearGradient3155);fill-opacity:1"
             d="m 42.300511,125.33315 c 7.599852,-7.71623 23.120051,-29.027976 30.504395,-37.281699 2.84134,-3.175858 5.259796,-2.575899 4.96849,-3.253502 -0.982427,-2.285211 -10.244215,-10.387562 -13.074568,-12.829365 -0.663547,-0.572456 -1.146602,1.907363 -1.355406,3.17684 -1.06066,6.448555 -2.01072,6.4415 -11.366832,13.950874 -19.665248,15.783662 -35.508034,32.772022 -35.508034,38.696822 0,2.76358 4.70493,6.95788 7.546963,7.03735 0.697183,0.0195 5.037995,3.9525 18.284992,-9.49732 z"
             id="path2141" />
        </g>
      </g>
    </g>
  </g>
</svg>
